# Blender v2.79 (sub 0) OBJ File: 'player.blend'
# www.blender.org
mtllib player-head.mtl
o Cube.002_Cube.003
v -0.238204 0.476553 -0.238204
v -0.238204 0.000145 -0.238204
v -0.238204 0.476553 0.238204
v -0.238204 0.000145 0.238204
v 0.238204 0.000145 0.238204
v 0.238204 0.476553 0.238204
v 0.238204 0.000145 -0.238204
v 0.238204 0.476553 -0.238204
vt 0.783122 0.009685
vt 0.982503 0.009685
vt 0.982503 0.209065
vt 0.783122 0.209065
vt 0.735873 0.213345
vt 0.735873 0.739780
vt 0.209439 0.739780
vt 0.209439 0.213345
vt 0.783122 0.009685
vt 0.982503 0.009685
vt 0.982503 0.209065
vt 0.783122 0.209065
vt 0.783122 0.009685
vt 0.982503 0.009685
vt 0.982503 0.209065
vt 0.783122 0.209065
vt 0.783122 0.009685
vt 0.982503 0.009685
vt 0.982503 0.209065
vt 0.783122 0.009685
vt 0.982503 0.009685
vt 0.783122 0.209065
vn -1.0000 0.0000 0.0000
vn 0.0000 0.0000 -1.0000
vn 1.0000 0.0000 0.0000
vn 0.0000 0.0000 1.0000
vn 0.0000 -1.0000 0.0000
vn 0.0000 1.0000 0.0000
usemtl entities/player
s off
f 4/1/1 3/2/1 1/3/1 2/4/1
f 2/5/2 1/6/2 8/7/2 7/8/2
f 7/9/3 8/10/3 6/11/3 5/12/3
f 5/13/4 6/14/4 3/15/4 4/16/4
f 2/17/5 7/18/5 5/19/5 4/16/5
f 8/20/6 1/21/6 3/15/6 6/22/6
