# Blender v2.79 (sub 0) OBJ File: 'player.blend'
# www.blender.org
mtllib player-body.mtl
o Cube.001
v -0.125000 -0.900000 0.070903
v -0.125000 -0.900000 -0.070903
v 0.125000 -0.900000 -0.070903
v 0.125000 -0.900000 0.070903
v -0.125000 0.491919 0.070903
v 0.125000 0.491919 0.070903
v 0.125000 0.491919 -0.070903
v -0.125000 0.491919 -0.070903
vt 0.783122 0.009685
vt 0.982503 0.009685
vt 0.982503 0.209065
vt 0.783122 0.209065
vt 0.783122 0.009685
vt 0.982503 0.009685
vt 0.982503 0.209065
vt 0.783122 0.209065
vt 0.982503 0.009685
vt 0.982503 0.209065
vt 0.783122 0.209065
vt 0.112175 0.434439
vt 0.311556 0.434439
vt 0.311556 0.633819
vt 0.112175 0.633819
vt 0.783122 0.009685
vt 0.982503 0.009685
vt 0.982503 0.209065
vt 0.982503 0.009685
vt 0.982503 0.209065
vt 0.783122 0.209065
vn 0.0000 -1.0000 0.0000
vn 0.0000 1.0000 0.0000
vn -1.0000 0.0000 0.0000
vn -0.0000 -0.0000 -1.0000
vn 1.0000 0.0000 0.0000
vn 0.0000 0.0000 1.0000
usemtl entities/player
s 1
f 1/1/1 2/2/1 3/3/1 4/4/1
f 5/5/2 6/6/2 7/7/2 8/8/2
f 1/1/3 5/9/3 8/10/3 2/11/3
f 2/12/4 8/13/4 7/14/4 3/15/4
f 3/16/5 7/17/5 6/18/5 4/4/5
f 5/5/6 1/19/6 4/20/6 6/21/6
