# Blender v2.79 (sub 0) OBJ File: 'player.blend'
# www.blender.org
mtllib player-hand.mtl
o Cube.000_Cube.002
v 0.062480 -0.613786 -0.062480
v 0.062480 -0.613786 0.062480
v -0.062480 -0.613786 0.062480
v -0.062480 -0.613786 -0.062480
v 0.062480 0.070352 -0.062480
v -0.062480 0.070352 -0.062480
v -0.062480 0.070352 0.062480
v 0.062480 0.070352 0.062480
vt 0.783122 0.009685
vt 0.982503 0.009685
vt 0.982503 0.209065
vt 0.783122 0.209065
vt 0.783122 0.009685
vt 0.982503 0.009685
vt 0.982503 0.209065
vt 0.783122 0.209065
vt 0.436482 0.280393
vt 0.433740 0.937829
vt 0.436146 0.914519
vt 0.438665 0.292591
vt 0.492515 0.918221
vt 0.493194 0.293103
vt 0.493371 0.941872
vt 0.494058 0.280870
vn 0.0000 -1.0000 0.0000
vn 0.0000 1.0000 -0.0000
vn 1.0000 -0.0000 0.0000
vn -0.0000 -0.0000 1.0000
vn -1.0000 0.0000 0.0000
vn 0.0000 0.0000 -1.0000
usemtl entities/player
s 1
f 1/1/1 2/2/1 3/3/1 4/4/1
f 5/5/2 6/6/2 7/7/2 8/8/2
f 1/9/3 5/10/3 8/11/3 2/12/3
f 2/12/4 8/11/4 7/13/4 3/14/4
f 3/14/5 7/13/5 6/15/5 4/16/5
f 5/10/6 1/9/6 4/16/6 6/15/6
